# xmcd CD database file
#
# Track frame offsets:
#	150
#	9112
#	13820
#	25072
#	33710
#	40322
#	47792
#	61842
#	67780
#	81845
#	89192
#	105225
#	116722
#
# Disc length: 1758 seconds
#
# Revision: 0
# Processed by: cddbd v1.4PL0 Copyright (c) Steve Scherf et al.
# Submitted via: CDex 1.51
#
DISCID=9e06dc0d
DTITLE=Stephen Mo Hanan - Jolson and Company
DYEAR=2003
DGENRE=Jazz
TTITLE0=Swanee
TTITLE1=I'm Sitting on Top of the World
TTITLE2=The Little Victrola
TTITLE3=You Made Me Love You
TTITLE4=Where Did Robinsoe Crusoe Go with Friday on Saturday Night?
TTITLE5=California Here I Come
TTITLE6=Sonny Boy
TTITLE7=When the Red, Red Robin Comes Bob-Bob-Bobbin' Along
TTITLE8=My Mammy
TTITLE9=Toot Toot Tootsie Goodbye
TTITLE10=Hello Central! Give Me No Man's Land
TTITLE11=Rock-A-Bye Your Baby with a Dixie Melody
TTITLE12=April Showers
EXTD=YEAR: 2003
EXTT0=
EXTT1=
EXTT2=
EXTT3=
EXTT4=
EXTT5=
EXTT6=
EXTT7=
EXTT8=
EXTT9=
EXTT10=
EXTT11=
EXTT12=
PLAYORDER=
